<?xml version="1.0" encoding="utf-8"?>
<!-- Generator: Adobe Illustrator 22.0.1, SVG Export Plug-In . SVG Version: 6.00 Build 0)  -->
<svg version="1.1" id="Шар_1" xmlns="http://www.w3.org/2000/svg" xmlns:xlink="http://www.w3.org/1999/xlink" x="0px" y="0px"
	 viewBox="0 0 1596.8 241" style="enable-background:new 0 0 1596.8 241;" xml:space="preserve">
<g>
	<path d="M343.9,16.2l23.4,138.4h1.5L392,16.2h41.1l8.5,219.6h-31.5L405,95.2h-1.5l-23.2,140.5h-24.7L332.1,95.2h-1.3l-5.1,140.5
		h-31.5l8.5-219.6H343.9z"/>
	<path d="M557.3,228.7c-12.9,7.5-28.1,11.2-45.4,11.2c-12.1,0-21.6-2.9-28.7-8.8s-12.1-15.5-15.3-28.8c-3.2-13.3-4.8-31.5-4.8-54.5
		c0-22.5,1.7-40.4,5-53.8s8.7-23.1,16-29.2s17.2-9.1,29.5-9.1c12.2,0,21.6,1.6,28.2,4.9c6.6,3.3,11.3,8.9,14.1,16.9
		c2.8,8,4.2,19.3,4.2,34.1c0,15.7-1.7,27.5-5.2,35.5c-3.5,8-9.6,13.5-18.4,16.7c-8.8,3.2-21.9,4.7-39.4,4.7v29.5
		c4.4,1.9,10.7,2.8,19,2.8c10.8,0,23.2-2.9,37.3-8.8L557.3,228.7z M497,112.4v27.4h18.1c6.3,0,10.5-1.2,12.9-3.7s3.5-7.1,3.5-13.9
		V95.2h-18.3c-6.2,0-10.5,1.2-12.8,3.7C498.2,101.4,497,105.9,497,112.4z"/>
	<path d="M602.1,60.1l8.3,17.6c11.4-14.5,25.1-21.8,41.1-21.8c9.9,0,17.6,3,23,9s8.1,14.6,8.1,25.8v145.1h-31.7v-137h-19.2
		c-5,0-8.4,1.1-10.3,3.3c-1.9,2.2-2.9,6.3-2.9,12.1v121.6h-31.7V60.1H602.1z"/>
	<path d="M790.6,235.7l-8.1-17.6c-11.8,14.5-25.9,21.8-42.2,21.8c-10.4,0-18-3.5-22.8-10.4c-4.8-6.9-7.2-18-7.2-33.2V60.1H742v143
		h19c5,0,8.5-1.1,10.4-3.3c2-2.2,3-6.1,3-11.8V60.1h31.7v175.7H790.6z"/>
	<path d="M902,20.7c8.2-6.6,20.3-9.8,36.2-9.8c15.9,0,28,3.3,36.2,9.8s14.1,18,17.5,34.3c3.4,16.3,5.1,40,5.1,71.1s-1.7,54.8-5.1,71
		c-3.4,16.2-9.2,27.5-17.5,34.1s-20.3,9.8-36.2,9.8c-15.9,0-28-3.3-36.2-9.8s-14.1-17.9-17.5-34.1c-3.4-16.2-5.1-39.8-5.1-71
		s1.7-54.9,5.1-71.1C888,38.7,893.8,27.3,902,20.7z M959.1,191.5c2.6-3.3,3.8-9,3.8-17.2V55.5h-32c-6.5,0-11.1,1.6-13.6,4.9
		c-2.6,3.3-3.8,9-3.8,17.2v118.7h32C952,196.4,956.6,194.7,959.1,191.5z"/>
	<path d="M1037.5,60.1l8.3,17.6c11.4-14.5,25.1-21.8,41.1-21.8c9.9,0,17.6,3,23,9s8.1,14.6,8.1,25.8v145.1h-31.7v-137h-19.2
		c-5,0-8.4,1.1-10.3,3.3c-1.9,2.2-2.9,6.3-2.9,12.1v121.6h-31.7V60.1H1037.5z"/>
	<path d="M1338.8,235.7h-48.2L1272.1,78l-18.5,157.7h-48.2l-20-219.6h31.7l14.9,170h1.9l21.1-170h34.1l21.1,170h1.9l14.9-170h31.7
		L1338.8,235.7z"/>
	<path d="M1467.9,228.7c-12.9,7.5-28.1,11.2-45.4,11.2c-12.1,0-21.6-2.9-28.7-8.8s-12.1-15.5-15.3-28.8c-3.2-13.3-4.8-31.5-4.8-54.5
		c0-22.5,1.7-40.4,5-53.8s8.7-23.1,16-29.2c7.3-6.1,17.2-9.1,29.5-9.1c12.2,0,21.6,1.6,28.2,4.9c6.6,3.3,11.3,8.9,14.1,16.9
		c2.8,8,4.2,19.3,4.2,34.1c0,15.7-1.7,27.5-5.2,35.5c-3.5,8-9.6,13.5-18.4,16.7c-8.8,3.2-21.9,4.7-39.4,4.7v29.5
		c4.4,1.9,10.7,2.8,19,2.8c10.8,0,23.2-2.9,37.3-8.8L1467.9,228.7z M1407.6,112.4v27.4h18.1c6.2,0,10.5-1.2,12.9-3.7
		s3.5-7.1,3.5-13.9V95.2h-18.3c-6.3,0-10.5,1.2-12.8,3.7C1408.8,101.4,1407.6,105.9,1407.6,112.4z"/>
	<path d="M1592.8,92.4c2.7,13.3,4,31.9,4,55.5c0,23.4-1.5,41.7-4.6,55c-3.1,13.2-8.1,22.7-15,28.5c-7,5.7-16.5,8.6-28.8,8.6h-0.2
		c-9.8,0-18.6-0.9-26.5-2.8c-7.9-1.9-16-5-24.4-9.5V4.6l31.7-4.6v62.2c6-4.9,14.5-7.4,25.6-7.4c10.7,0,19,2.9,25,8.8
		C1585.7,69.4,1590.1,79,1592.8,92.4z M1538.2,95.2c-3.6,0-6,0.6-7.2,1.9c-1.3,1.3-1.9,3.8-1.9,7.6v94.9h24.7c3.4,0,5.8-0.6,7-1.8
		c1.3-1.2,1.9-3.4,1.9-6.7V95.2H1538.2z"/>
</g>
<path d="M243.5,117H38.3c3.5,50.9,48,91,102.6,91C195.1,208,239.7,167.9,243.5,117z"/>
</svg>
